# AST/ASF file generated using VICON BodyLanguage
# -----------------------------------------------
:version 1.10
:name VICON
:units
  mass 1.0
  length 0.45
  angle deg
:documentation
   .ast/.asf automatically generated from VICON data using
   VICON BodyBuilder and BodyLanguage model FoxedUp or BRILLIANT.MOD
:root
   order TX TY TZ RX RY RZ
   axis XYZ
   position 0 0 0  
   orientation 0 0 0 
:bonedata
  begin
     id 1 
     name lhipjoint
     direction 0.577973 -0.728611 0.367523 
     length 2.48544 
     axis 0 0 0  XYZ
  end
  begin
     id 2 
     name lfemur
     direction 0.34202 -0.939693 0  
     length 7.1921  
     axis 0 0 20  XYZ
    dof rx ry rz
    limits (-160.0 20.0)
           (-70.0 70.0)
           (-60.0 70.0)
  end
  begin
     id 3 
     name ltibia
     direction 0.34202 -0.939693 0   
     length 7.71059   
     axis 0 0 20   XYZ
    dof rx
    limits (-10.0 170.0)
  end
  begin
     id 4 
     name lfoot
     direction 0.089538 -0.246004 0.965124   
     length 2.19909   
     axis -90 7.62852e-016 20   XYZ
    dof rx rz
    limits (-45.0 90.0)
           (-70.0 20.0)
  end
  begin
     id 5 
     name ltoes
     direction 1.53544e-011 -4.21829e-011 1   
     length 1.10116   
     axis -90 7.62852e-016 20   XYZ
    dof rx
    limits (-90.0 20.0)
  end
  begin
     id 6 
     name rhipjoint
     direction -0.554414 -0.743062 0.374812   
     length 2.4371  
     axis 0 0 0  XYZ 
  end
  begin
     id 7 
     name rfemur
     direction -0.34202 -0.939693 0   
     length 7.47254   
     axis 0 0 -20   XYZ
    dof rx ry rz
    limits (-160.0 20.0)
           (-70.0 70.0)
           (-70.0 60.0)
  end
  begin
     id 8 
     name rtibia
     direction -0.34202 -0.939693 0   
     length 7.65855   
     axis 0 0 -20   XYZ
    dof rx
    limits (-10.0 170.0)
 end
 begin
     id 9 
     name rfoot
     direction -0.133779 -0.367555 0.92033   
     length 2.43006  
     axis -90 -7.62852e-016 -20   XYZ
    dof rx rz
    limits (-45.0 90.0)
           (-20.0 70.0)
  end
  begin
     id 10 
     name rtoes
     direction -1.53563e-011 -4.21889e-011 1   
     length 1.19625   
     axis -90 -7.62852e-016 -20   XYZ
    dof rx
    limits (-90.0 20.0)
  end
  begin
     id 11 
     name lowerback
     direction 0.0249066 0.998043 -0.0573585   
     length 2.08485   
     axis 0 0 0   XYZ
    dof rx ry rz
    limits (-20.0 45.0)
           (-30.0 30.0)
           (-30.0 30.0)
  end
  begin
     id 12 
     name upperback
     direction 0.0237884 0.999673 0.00943178   
     length 2.08515   
     axis 0 0 0   XYZ
    dof rx ry rz
    limits (-20.0 45.0)
           (-30.0 30.0)
           (-30.0 30.0)
  end
  begin
     id 13 
     name thorax
     direction 0.0106671 0.999301 0.0358174   
     length 2.09037   
     axis 0 0 0   XYZ
    dof rx ry rz
    limits (-20.0 45.0)
           (-30.0 30.0)
           (-30.0 30.0)
  end
  begin
     id 14 
     name lowerneck
     direction -0.0580016 0.987052 0.149546   
     length 1.84454   
     axis 0 0 0   XYZ
    dof rx ry rz
    limits (-20.0 45.0)
           (-30.0 30.0)
           (-30.0 30.0)
  end
  begin
     id 15 
     name upperneck
     direction 0.079456 0.981963 -0.171567   
     length 1.88141   
     axis 0 0 0   XYZ
    dof rx ry rz
    limits (-20.0 45.0)
           (-30.0 30.0)
           (-30.0 30.0)
  end
  begin
     id 16
     name head
     direction 0.0262167 0.9967 -0.0768276  
     length 1.89541  
     axis 0 0 0   XYZ
    dof rx ry rz
    limits (-20.0 45.0)
           (-30.0 30.0)
           (-30.0 30.0)
  end
  begin
     id 17 
     name lclavicle
     direction 0.946135 0.322134 -0.0325326  
     length 3.949  
     axis 0 0 0   XYZ
    dof ry rz
    limits (-20.0 10.0)
           (0.0 20.0)
  end
  begin
     id 18 
     name lhumerus
     direction 1 -4.48964e-011 1.94005e-028   
     length 5.10995   
     axis 180 -30 -90   XYZ
    dof rx ry rz
    limits (-60.0 90.0)
           (-90.0 90.0)
           (-90.0 90.0)
  end
  begin
     id 19
     name lradius
     direction 1 -4.48976e-011 2.87852e-027   
     length 3.21207   
     axis 180 -30 -90   XYZ
    dof rx
    limits (-10.0 170.0)
  end
  begin
     id 20
     name lwrist
     direction 1 -4.48963e-011 1.9975e-027   
     length 1.60604   
     axis 2.96054e-016 90 90   XYZ
    dof ry
    limits (-180.0 0.0)
 end
  begin
     id 21 
     name lhand
     direction 1 -4.48919e-011 4.00227e-027   
     length 0.63349   
     axis -2.5488e-015 90 90   XYZ
    dof rx rz
    limits (-90.0 90.0)
           (-45.0 45.0)
  end
  begin
     id 22 
     name lfingers
     direction 1 -4.49037e-011 7.9652e-027   
     length 0.510736   
     axis -5.0975e-015 90 90   XYZ
    dof rx
    limits (0.0 90.0)
  end
  begin
     id 23
     name lthumb
     direction 0.707107 -6.34922e-011 0.707107   
     length 0.733318   
     axis -90 45 -4.48553e-014   XYZ
    dof rx rz
    limits (-45.0 45.0)
           (-45.0 45.0)
  end
  begin
     id 24 
     name rclavicle
     direction -0.940085 0.328911 -0.0897654   
     length 3.93848  
     axis 0 0 0   XYZ 
    dof ry rz
    limits (-10.0 20.0)
           (-20.0 0.0)
  end
  begin
     id 25 
     name rhumerus
     direction -1 -4.48958e-011 3.02044e-027  
     length 5.25109   
     axis 180 30 90   XYZ
    dof rx ry rz
    limits (-90.0 60.0)
           (-90.0 90.0)
           (-90.0 90.0)
  end
  begin
     id 26 
     name rradius
     direction -1 -4.4897e-011 9.78352e-028   
     length 3.28364   
     axis 180 30 90   XYZ
    dof rx
    limits (-10.0 170.0)
  end
  begin
     id 27 
     name rwrist
     direction -1 -4.48943e-011 1.99918e-027   
     length 1.64182   
     axis 2.96054e-016 -90 -90   XYZ
    dof ry
    limits (-180.0 0.0)
  end
  begin
     id 28
     name rhand
     direction -1 -4.49024e-011 3.98478e-027   
     length 0.599745   
     axis -2.5488e-015 -90 -90   XYZ
    dof rx rz
    limits (-90.0 90.0)
           (-45.0 45.0)
  end
  begin
     id 29
     name rfingers
     direction -1 -4.48914e-011 8.00621e-027   
     length 0.48353   
     axis -5.0975e-015 -90 -90   XYZ
    dof rx
    limits (0.0 90.0)
  end
  begin
     id 30
     name rthumb
     direction -0.707107 -6.34992e-011 0.707107   
     length 0.694255   
     axis -90 -45 4.48553e-014   XYZ
    dof rx rz
    limits (-45.0 45.0)
           (-45.0 45.0)
  end
:hierarchy
  begin
    root lhipjoint rhipjoint lowerback
    lhipjoint lfemur
    lfemur ltibia
    ltibia lfoot
    lfoot ltoes
    rhipjoint rfemur
    rfemur rtibia
    rtibia rfoot
    rfoot rtoes
    lowerback upperback
    upperback thorax
    thorax lowerneck lclavicle rclavicle
    lowerneck upperneck
    upperneck head
    lclavicle lhumerus
    lhumerus lradius
    lradius lwrist
    lwrist lhand lthumb
    lhand lfingers
    rclavicle rhumerus
    rhumerus rradius
    rradius rwrist
    rwrist rhand rthumb
    rhand rfingers
  end

#!OML:ASF E:\CV Data\Top Level 1\Subject 1\Session 1\player.ASF
:FULLY-SPECIFIED
:DEGREES
44
root 4.36 17.3379 -29.3326 7.64658 -15.73 -8.11505
lowerback 0.720335 0.834712 3.30823
upperback 0.0209003 1.14487 3.50777
thorax -0.389526 0.56519 1.73223
lowerneck -14.3703 -12.4535 -17.5411
upperneck 14.066 -16.7762 17.8543
head 9.93477 -7.38293 6.56501
rclavicle 8.51047e-015 -3.57812e-015
rhumerus -40.2417 17.1571 -98.0989
rradius 72.9913
rwrist -76.7059
rhand -1.71419 -12.25
rfingers 7.12502
rthumb 23.9475 -40.7765
lclavicle 8.51047e-015 -3.57812e-015
lhumerus -39.8216 -30.9133 105.926
lradius 90.2231
lwrist 34.6043
lhand -28.5296 31.4274
lfingers 7.12502
lthumb -1.89739 61.3987
rfemur -24.5572 7.70355 22.2056
rtibia 37.3758
rfoot -17.2075 -5.62656
rtoes 2.76043
lfemur -20.4296 6.07038 -15.7311
ltibia 38.9668
lfoot -18.642 11.3364
ltoes 5.75873
45
root 4.36671 17.3354 -29.3292 7.54738 -15.8621 -8.08505
lowerback 0.814352 0.869539 3.35709
upperback 0.0765767 1.19434 3.49547
thorax -0.384157 0.590024 1.69076
lowerneck -14.5786 -12.3762 -17.4145
upperneck 14.5938 -16.6773 17.5655
head 10.0931 -7.33326 6.4615
rclavicle -5.98839e-014 1.70955e-014
rhumerus -40.1953 16.5316 -97.7962
rradius 72.6497
rwrist -77.3105
rhand -0.732695 -11.7279
rfingers 7.12502
rthumb 24.8884 -40.1276
lclavicle -5.98839e-014 1.70955e-014
lhumerus -39.7658 -31.1903 105.922
lradius 90.1851
lwrist 34.3758
lhand -27.174 31.6473
lfingers 7.12502
lthumb -0.58812 61.6263
rfemur -24.4745 7.76236 22.1375
rtibia 37.395
rfoot -17.2315 -5.56148
rtoes 2.74173
lfemur -20.2967 5.94235 -15.8037
ltibia 38.9686
lfoot -18.6423 11.551
ltoes 5.85436
46
root 4.37247 17.3329 -29.3262 7.45983 -15.9838 -8.05251
lowerback 0.906438 0.904088 3.38393
upperback 0.122437 1.2437 3.4902
thorax -0.388296 0.614756 1.66869
lowerneck -14.7853 -12.2959 -17.2838
upperneck 15.1551 -16.5738 17.253
head 10.2609 -7.28359 6.35035
rclavicle -2.68484e-014 2.34566e-014
rhumerus -40.1719 15.8172 -97.438
rradius 72.3584
rwrist -77.9657
rhand 0.281128 -11.0321
rfingers 7.12502
rthumb 25.8596 -39.2939
lclavicle -2.68484e-014 2.34566e-014
lhumerus -39.7133 -31.4169 105.904
lradius 90.1489
lwrist 34.1697
lhand -25.7432 31.6641
lfingers 7.12502
lthumb 0.793781 61.6423
rfemur -24.4048 7.82201 22.0716
rtibia 37.4176
rfoot -17.2566 -5.50854
rtoes 2.71193
lfemur -20.1808 5.84784 -15.8727
ltibia 38.9693
lfoot -18.6517 11.7239
ltoes 5.91214
47
root 4.37711 17.3306 -29.3244 7.39245 -16.0824 -8.02061
lowerback 0.988742 0.935063 3.39388
upperback 0.161434 1.28796 3.48901
thorax -0.39438 0.636937 1.66033
lowerneck -14.9843 -12.2119 -17.1519
upperneck 15.7266 -16.466 16.939
head 10.4318 -7.23328 6.23974
rclavicle -1.69961e-014 4.37326e-015
rhumerus -40.1588 15.0306 -97.0376
rradius 72.1423
rwrist -78.5999
rhand 1.17032 -10.255
rfingers 7.12502
rthumb 26.7109 -38.3899
lclavicle -1.69961e-014 4.37326e-015
lhumerus -39.6459 -31.5954 105.858
lradius 90.1221
lwrist 34.0134
lhand -24.3609 31.4205
lfingers 7.12502
lthumb 2.12882 61.3897
rfemur -24.3595 7.87673 22.0126
rtibia 37.4442
rfoot -17.28 -5.47204
rtoes 2.69316
lfemur -20.0953 5.79081 -15.9326
ltibia 38.9702
lfoot -18.6639 11.8369
ltoes 5.95849
48
root 4.38034 17.3287 -29.3244 7.35037 -16.1466 -7.98649
lowerback 1.06672 0.957697 3.37366
upperback 0.188905 1.32117 3.49648
thorax -0.4107 0.653521 1.67776
lowerneck -15.1818 -12.1239 -17.0278
upperneck 16.3117 -16.3524 16.6287
head 10.6096 -7.18126 6.13325
rclavicle -4.83295e-014 5.10877e-014
rhumerus -40.1626 14.1893 -96.5986
rradius 72.0269
rwrist -79.1016
rhand 1.81328 -9.5233
rfingers 7.12502
rthumb 27.326 -37.5628
lclavicle -4.83295e-014 5.10877e-014
lhumerus -39.5577 -31.7121 105.786
lradius 90.1091
lwrist 33.9376
lhand -23.0731 30.9803
lfingers 7.12502
lthumb 3.37247 60.9334
rfemur -24.347 7.91868 21.9609
rtibia 37.475
rfoot -17.2972 -5.45956
rtoes 2.65645
lfemur -20.0514 5.78751 -15.9825
ltibia 38.9714
lfoot -18.6814 11.8664
ltoes 5.96922
49
root 4.38295 17.3272 -29.3251 7.32234 -16.178 -7.94697
lowerback 1.13017 0.973329 3.34134
upperback 0.221158 1.3438 3.50282
thorax -0.414183 0.664975 1.70121
lowerneck -15.3847 -12.0325 -16.9072
upperneck 16.8904 -16.2355 16.3416
head 10.7908 -7.12667 6.03621
rclavicle -3.14328e-014 5.36719e-015
rhumerus -40.1577 13.3056 -96.1325
rradius 72.0224
rwrist -79.3898
rhand 2.06559 -8.92295
rfingers 7.12502
rthumb 27.5673 -36.9241
lclavicle -3.14328e-014 5.36719e-015
lhumerus -39.4291 -31.7855 105.677
lradius 90.1101
lwrist 33.96
lhand -21.9866 30.382
lfingers 7.12502
lthumb 4.4217 60.3159
rfemur -24.353 7.94391 21.907
rtibia 37.508
rfoot -17.3112 -5.46331
rtoes 2.61254
lfemur -20.033 5.7718 -16.0332
ltibia 38.9722
lfoot -18.6919 11.8726
ltoes 5.99582
50
root 4.38502 17.3261 -29.3264 7.30487 -16.1805 -7.9068
lowerback 1.18567 0.979468 3.29941
upperback 0.255914 1.35305 3.51202
thorax -0.410885 0.669817 1.73331
lowerneck -15.5859 -11.9334 -16.7941
upperneck 17.4617 -16.1087 16.0759
head 10.9725 -7.06723 5.95035
rclavicle -1.80149e-014 -1.2921e-014
rhumerus -40.1634 12.3987 -95.6468
rradius 72.1407
rwrist -79.4582
rhand 1.90298 -8.45808
rfingers 7.12502
rthumb 27.4118 -36.484
lclavicle -1.80149e-014 -1.2921e-014
lhumerus -39.2746 -31.8113 105.551
lradius 90.1259
lwrist 34.0748
lhand -20.9309 29.9687
lfingers 7.12502
lthumb 5.4411 59.8789
rfemur -24.3724 7.95028 21.8563
rtibia 37.5418
rfoot -17.3212 -5.47741
rtoes 2.5528
lfemur -20.0322 5.74474 -16.0797
ltibia 38.9713
lfoot -18.7009 11.8619
ltoes 6.01285
51
root 4.38666 17.3252 -29.3279 7.29375 -16.1611 -7.86889
lowerback 1.22822 0.979608 3.25773
upperback 0.302998 1.3529 3.5181
thorax -0.387532 0.670151 1.76257
lowerneck -15.8184 -11.8321 -16.6694
upperneck 18.0324 -15.9791 15.826
head 11.1625 -7.00356 5.86795
rclavicle 2.69602e-014 -7.35503e-015
rhumerus -40.1493 11.4569 -95.1381
rradius 72.3467
rwrist -79.3628
rhand 1.44777 -8.0844
rfingers 7.12502
rthumb 26.9763 -36.1784
lclavicle 2.69602e-014 -7.35503e-015
lhumerus -39.0853 -31.8047 105.398
lradius 90.1649
lwrist 34.3084
lhand -19.9236 29.8296
lfingers 7.12502
lthumb 6.41359 59.7125
rfemur -24.3997 7.94056 21.8118
rtibia 37.5744
rfoot -17.3222 -5.50245
rtoes 2.45388
lfemur -20.0414 5.70491 -16.1206
ltibia 38.9686
lfoot -18.7035 11.8425
ltoes 6.03372
52
root 4.38817 17.3246 -29.3291 7.28424 -16.1196 -7.83186
lowerback 1.26571 0.968206 3.21198
upperback 0.352918 1.33686 3.52855
thorax -0.358504 0.662565 1.79898
lowerneck -16.0379 -11.718 -16.5536
upperneck 18.5908 -15.8324 15.5933
head 11.3474 -6.93281 5.79743
rclavicle 4.96962e-017 -1.19271e-015
rhumerus -40.1415 10.4907 -94.5913
rradius 72.6248
rwrist -79.2235
rhand 0.90971 -7.71967
rfingers 7.12502
rthumb 26.4614 -35.8923
lclavicle 4.96962e-017 -1.19271e-015
lhumerus -38.8913 -31.7381 105.245
lradius 90.2387
lwrist 34.6632
lhand -19.0589 29.9161
lfingers 7.12502
lthumb 7.24833 59.772
rfemur -24.426 7.90972 21.7709
rtibia 37.606
rfoot -17.3222 -5.52879
rtoes 2.33609
lfemur -20.054 5.64726 -16.159
ltibia 38.9648
lfoot -18.7042 11.8201
ltoes 6.05375
